<?xml version="1.0" standalone="no"?>
<!DOCTYPE svg PUBLIC "-//W3C//DTD SVG 20010904//EN"
 "http://www.w3.org/TR/2001/REC-SVG-20010904/DTD/svg10.dtd">
<svg version="1.0" xmlns="http://www.w3.org/2000/svg"
 width="510.000000pt" height="353.000000pt" viewBox="0 0 510.000000 353.000000"
 preserveAspectRatio="xMidYMid meet">

<g transform="translate(0.000000,353.000000) scale(0.100000,-0.100000)"
fill="#000000" stroke="none">
<path d="M2353 3489 c-57 -14 -160 -84 -199 -136 -56 -74 -77 -145 -71 -244 3
-66 10 -98 31 -138 14 -29 26 -56 26 -61 0 -5 -19 -11 -42 -15 -128 -21 -360
-123 -514 -224 -381 -252 -647 -690 -690 -1138 l-7 -73 -103 0 c-57 0 -104 -2
-104 -6 0 -4 158 -550 216 -747 5 -16 85 -17 1551 -15 l1545 3 109 370 c59
204 108 375 109 382 0 9 -30 13 -102 15 l-103 3 -3 35 c-1 19 -11 87 -22 150
-75 453 -381 876 -790 1094 -106 56 -266 120 -356 142 -38 9 -73 20 -77 24 -5
4 -2 19 7 32 31 47 47 113 47 192 1 70 -3 87 -35 150 -43 88 -91 137 -172 177
-69 34 -176 46 -251 28z m144 -174 c137 -41 188 -204 95 -307 -20 -23 -51 -47
-69 -55 -41 -17 -115 -17 -156 1 -59 24 -117 111 -117 176 0 75 66 162 139
184 59 18 49 18 108 1z m110 -565 c475 -64 858 -335 1077 -764 72 -141 119
-304 139 -483 l5 -43 -1379 0 -1379 0 0 34 c0 62 31 210 65 313 137 410 453
732 860 877 66 24 228 60 305 69 74 8 232 7 307 -3z"/>
<path d="M2225 2584 c-307 -54 -620 -255 -788 -505 -31 -48 -75 -124 -96 -170
-38 -82 -91 -245 -91 -281 0 -17 53 -18 1200 -18 l1200 0 -6 28 c-53 239 -151
426 -306 588 -178 186 -423 314 -682 359 -110 19 -322 18 -431 -1z m393 -70
c193 -28 374 -102 516 -209 118 -89 116 -81 42 -154 l-64 -63 -71 54 c-146
111 -318 181 -478 193 -133 10 -123 2 -123 105 l0 90 36 0 c20 0 84 -7 142
-16z m862 -620 c23 -47 38 -90 33 -94 -8 -8 -123 -46 -155 -52 -12 -2 -27 18
-55 72 l-38 75 75 42 c41 23 80 43 86 43 7 0 31 -39 54 -86z"/>
<path d="M4237 442 c-34 -37 -14 -72 40 -72 26 0 36 6 45 25 22 49 -48 88 -85
47z"/>
<path d="M4620 359 l0 -70 -22 15 c-13 10 -44 16 -74 16 -42 0 -59 -5 -85 -27
-112 -94 -52 -273 91 -273 25 0 55 7 66 15 25 19 34 19 34 0 0 -11 11 -15 40
-15 l40 0 0 205 0 205 -45 0 -45 0 0 -71z m-17 -131 c10 -11 17 -37 17 -59 0
-50 -27 -79 -75 -79 -46 0 -75 29 -75 76 0 19 5 44 11 55 22 42 89 46 122 7z"/>
<path d="M3536 405 c-94 -33 -139 -102 -134 -201 7 -119 82 -184 211 -184 48
0 80 6 112 21 l45 21 0 79 0 79 -40 0 -40 0 0 -55 c0 -62 -13 -75 -75 -75 -76
0 -128 54 -127 134 2 94 112 149 198 97 30 -18 30 -18 60 6 l29 24 -29 24
c-53 43 -140 55 -210 30z"/>
<path d="M30 215 l0 -195 40 0 40 0 0 55 0 55 48 0 c46 0 48 -1 82 -55 34 -54
36 -55 83 -55 l48 0 -41 60 -41 60 36 35 c32 32 35 41 35 91 0 109 -55 144
-225 144 l-105 0 0 -195z m225 100 c32 -31 32 -59 0 -91 -22 -22 -32 -25 -83
-22 l-57 3 -3 54 c-4 77 -1 81 63 81 46 0 60 -4 80 -25z"/>
<path d="M1098 353 c-2 -31 -7 -39 -25 -41 -18 -3 -23 -10 -23 -33 0 -24 4
-29 25 -29 25 0 25 -1 25 -87 1 -116 22 -143 114 -143 51 0 59 8 50 45 -5 21
-11 25 -27 21 -44 -11 -57 9 -57 89 l0 75 35 0 c32 0 35 2 35 30 0 28 -3 30
-35 30 -34 0 -35 1 -35 40 0 40 0 40 -39 40 -39 0 -40 -1 -43 -37z"/>
<path d="M3020 350 c0 -33 -3 -40 -20 -40 -16 0 -20 -7 -20 -30 0 -23 4 -30
20 -30 18 0 20 -7 20 -70 0 -78 18 -133 48 -149 25 -13 101 -14 121 -2 21 13
-3 66 -25 57 -8 -3 -24 -1 -35 4 -16 9 -19 22 -19 85 l0 75 35 0 c32 0 35 2
35 30 0 28 -3 30 -35 30 -34 0 -35 1 -35 40 l0 40 -45 0 -45 0 0 -40z"/>
<path d="M482 300 c-45 -28 -76 -97 -67 -151 8 -45 43 -93 86 -114 56 -29 199
-8 199 30 0 21 -38 49 -52 38 -48 -37 -148 -9 -148 41 0 3 52 6 116 6 l117 0
-7 43 c-9 52 -28 82 -69 107 -44 27 -131 27 -175 0z m140 -57 c35 -41 33 -43
-46 -43 -80 0 -89 7 -56 40 25 25 81 27 102 3z"/>
<path d="M830 313 c-36 -13 -60 -47 -60 -84 0 -52 27 -75 103 -88 71 -12 86
-23 66 -47 -10 -13 -24 -15 -64 -11 -27 4 -59 9 -71 12 -15 5 -23 0 -32 -20
-7 -14 -12 -27 -12 -29 0 -12 100 -28 151 -24 55 4 65 8 91 38 24 26 29 38 24
63 -11 52 -28 63 -139 82 -32 5 -38 10 -35 28 2 18 11 23 41 25 22 2 52 -1 68
-7 27 -9 30 -7 44 20 15 28 15 30 -10 39 -28 10 -139 12 -165 3z"/>
<path d="M1352 305 l-33 -15 17 -29 c17 -28 18 -29 52 -14 43 18 98 10 112
-17 5 -10 10 -21 10 -23 0 -2 -29 -7 -63 -10 -78 -7 -111 -22 -126 -54 -18
-39 -13 -63 18 -94 25 -24 38 -29 78 -29 28 0 58 6 69 15 25 19 34 19 34 0 0
-10 11 -15 35 -15 l35 0 0 116 0 116 -34 34 c-32 32 -38 34 -102 34 -38 -1
-84 -7 -102 -15z m158 -179 c0 -32 -24 -50 -67 -50 -30 0 -52 15 -53 36 0 20
36 38 76 38 40 0 44 -2 44 -24z"/>
<path d="M1672 213 c5 -119 18 -157 59 -179 36 -18 110 -18 135 1 25 19 34 19
34 0 0 -11 11 -15 40 -15 l40 0 0 150 0 150 -45 0 -45 0 0 -95 c0 -107 -14
-135 -68 -135 -51 0 -62 25 -62 133 l0 97 -46 0 -46 0 4 -107z"/>
<path d="M2060 170 l0 -150 40 0 40 0 0 74 c0 40 5 87 10 103 11 29 45 53 75
53 10 0 15 11 15 35 0 30 -3 35 -23 35 -13 0 -32 -7 -43 -15 -25 -19 -34 -19
-34 0 0 11 -11 15 -40 15 l-40 0 0 -150z"/>
<path d="M2302 305 l-33 -15 17 -29 c17 -28 18 -29 52 -14 43 18 98 10 112
-17 5 -10 10 -21 10 -23 0 -2 -29 -7 -63 -10 -78 -7 -111 -22 -126 -54 -18
-39 -13 -63 18 -94 25 -24 38 -29 78 -29 28 0 58 6 69 15 25 19 34 19 34 0 0
-10 11 -15 35 -15 l35 0 0 116 0 116 -34 34 c-32 32 -38 34 -102 34 -38 -1
-84 -7 -102 -15z m158 -179 c0 -32 -24 -50 -67 -50 -30 0 -52 15 -53 36 0 20
36 38 76 38 40 0 44 -2 44 -24z"/>
<path d="M2630 170 l0 -150 40 0 40 0 0 95 c0 83 3 98 21 116 14 14 30 19 57
17 50 -4 62 -31 62 -140 l0 -88 41 0 41 0 -4 121 -3 121 -33 29 c-27 24 -41
29 -85 29 -31 0 -61 -6 -73 -15 -25 -19 -34 -19 -34 0 0 10 -11 15 -35 15
l-35 0 0 -150z"/>
<path d="M3850 204 l0 -116 34 -34 c29 -29 41 -34 83 -34 28 0 58 6 69 15 25
19 34 19 34 0 0 -11 11 -15 40 -15 l40 0 0 150 0 150 -45 0 -45 0 0 -95 c0
-107 -14 -135 -69 -135 -48 0 -61 30 -61 137 l0 93 -40 0 -40 0 0 -116z"/>
<path d="M4230 170 l0 -150 45 0 45 0 0 38 c0 20 -3 88 -7 150 l-6 112 -39 0
-38 0 0 -150z"/>
<path d="M4842 300 c-100 -61 -95 -211 8 -262 49 -25 136 -24 179 3 l33 20
-22 24 c-21 22 -24 22 -56 9 -37 -16 -79 -10 -106 14 -40 34 -23 42 92 42
l110 0 0 31 c0 45 -28 96 -65 119 -44 27 -128 27 -173 0z m138 -60 c33 -33 24
-40 -56 -40 -79 0 -81 2 -46 43 21 24 77 22 102 -3z"/>
</g>
</svg>
